<?xml version="1.0" encoding="UTF-8"?>
<svg version="1.1" xmlns="http://www.w3.org/2000/svg" width="251" height="230">
<path d="M0 0 C1.04028854 0.95573914 1.04028854 0.95573914 2.10159302 1.93078613 C8.48287611 7.81618256 14.77350169 13.79470487 21.03441525 19.80780315 C25.22440564 23.82710564 29.44024483 27.80708379 33.73779297 31.71142578 C64.9865151 60.16955344 64.9865151 60.16955344 66.02993488 76.98022556 C66.16670922 84.54786527 65.2577752 91.96163436 63.68774414 99.35668945 C59.74788992 97.07336398 56.74825247 94.66287663 53.52758789 91.42700195 C52.81996056 90.71868729 52.81996056 90.71868729 52.09803772 89.99606323 C51.10659638 89.00161625 50.11757086 88.00475545 49.13085938 87.00561523 C47.63142963 85.48795017 46.12417348 83.97841991 44.61547852 82.4699707 C40.41455941 78.24769534 36.37503328 74.04371345 32.68774414 69.35668945 C30.11576351 66.64934142 27.51991674 64.21968749 24.62524414 61.85668945 C21.87529303 59.51630553 19.88945445 57.19760598 17.68774414 54.35668945 C16.0343079 52.67501616 14.36552657 51.01383401 12.68774414 49.35668945 C11.27030369 47.94079699 9.85371555 46.52405104 8.43774414 45.10668945 C7.66430664 44.33325195 6.89086914 43.55981445 6.09399414 42.76293945 C3.70857747 40.37752279 1.32316081 37.99210612 -1.06225586 35.60668945 C-1.8034668 34.86676758 -2.54467773 34.1268457 -3.30834961 33.36450195 C-4.4934098 32.1771317 -5.67470033 30.98594473 -6.84741211 29.78637695 C-9.23855006 27.34405257 -11.54049571 25.43550957 -14.31225586 23.35668945 C-14.64225586 71.20668945 -14.97225586 119.05668945 -15.31225586 168.35668945 C-17.89949575 169.6503094 -19.79338589 169.48617894 -22.68725586 169.48950195 C-23.75459961 169.49079102 -24.82194336 169.49208008 -25.92163086 169.4934082 C-27.04053711 169.48954102 -28.15944336 169.48567383 -29.31225586 169.48168945 C-30.43116211 169.48555664 -31.55006836 169.48942383 -32.70288086 169.4934082 C-34.30389648 169.49147461 -34.30389648 169.49147461 -35.93725586 169.48950195 C-36.91952148 169.48837402 -37.90178711 169.48724609 -38.91381836 169.48608398 C-41.31225586 169.35668945 -41.31225586 169.35668945 -43.31225586 168.35668945 C-43.31225586 108.95668945 -43.31225586 49.55668945 -43.31225586 -11.64331055 C-13.76990971 -12.66201214 -13.76990971 -12.66201214 0 0 Z " fill="#0C76A2" transform="translate(95.312255859375,41.643310546875)"/>
<path d="M0 0 C9.57 0 19.14 0 29 0 C28.67 59.4 28.34 118.8 28 180 C-6.49611145 180 -6.49611145 180 -20.96679688 166.63867188 C-21.93415268 165.74622772 -21.93415268 165.74622772 -22.92105103 164.83575439 C-28.83398741 159.36062077 -34.66685843 153.80331756 -40.47304535 148.21526337 C-44.35621037 144.48219411 -48.26274119 140.78388848 -52.24121094 137.15234375 C-81.20231667 110.65599302 -81.20231667 110.65599302 -82.17041779 95.72272491 C-82.29707794 89.04963081 -81.46070263 82.50902921 -80 76 C-77 76 -77 76 -74.984375 77.7578125 C-74.24703125 78.53898437 -73.5096875 79.32015625 -72.75 80.125 C-69.91851296 83.06770748 -67.09430808 85.84647422 -63.9375 88.4375 C-62.968125 89.283125 -61.99875 90.12875 -61 91 C-61 91.66 -61 92.32 -61 93 C-59.68 93.66 -58.36 94.32 -57 95 C-57 95.66 -57 96.32 -57 97 C-56.45859375 97.2165625 -55.9171875 97.433125 -55.359375 97.65625 C-52.18354656 99.46499997 -49.79271919 101.91723799 -47.25 104.5 C-46.74339844 104.99886719 -46.23679688 105.49773437 -45.71484375 106.01171875 C-42 109.74658861 -42 109.74658861 -42 112 C-41.41719772 112.2571579 -40.83439545 112.5143158 -40.2339325 112.77926636 C-37.79993664 114.10932473 -36.20430811 115.56137379 -34.25708008 117.53173828 C-33.53986282 118.25233429 -32.82264557 118.9729303 -32.08369446 119.71536255 C-31.3200206 120.49249603 -30.55634674 121.26962952 -29.76953125 122.0703125 C-28.58299202 123.26465408 -28.58299202 123.26465408 -27.3724823 124.48312378 C-24.84769893 127.02571969 -22.32970579 129.57490368 -19.8125 132.125 C-17.28371376 134.6813486 -14.7535067 137.23624909 -12.22038269 139.78829956 C-10.64400367 141.3769957 -9.07030426 142.96835574 -7.49946594 144.56253052 C-6.79170517 145.2768222 -6.0839444 145.99111389 -5.35473633 146.72705078 C-4.72948563 147.3605545 -4.10423492 147.99405823 -3.46003723 148.64675903 C-2.20954993 150.11329572 -2.20954993 150.11329572 -1 150 C-0.67 100.5 -0.34 51 0 0 Z " fill="#A9B1B5" transform="translate(180,30)"/>
<path d="M0 0 C0.42124649 0.36446732 0.84249298 0.72893463 1.27650452 1.10444641 C4.33425373 3.7392086 7.407512 6.3445711 10.54858398 8.87963867 C36.82135412 30.27029768 36.82135412 30.27029768 38.75630188 43.29420471 C39.54054172 52.57350584 38.59156286 61.85055404 37 71 C33.01318613 68.81773457 30.04104843 66.28663538 26.83984375 63.0703125 C26.36809219 62.59810272 25.89634064 62.12589294 25.41029358 61.63937378 C24.41885224 60.6449268 23.42982672 59.64806599 22.44311523 58.64892578 C20.94368549 57.13126072 19.43642934 55.62173046 17.92773438 54.11328125 C13.72681527 49.89100588 9.68728914 45.68702399 6 41 C3.42801937 38.29265197 0.8321726 35.86299804 -2.0625 33.5 C-4.80236534 31.16819971 -6.82689536 28.84751643 -9 26 C-9.98230498 24.9826127 -10.97469597 23.97403883 -12 23 C-11.67 22.34 -11.34 21.68 -11 21 C-11.33 20.34 -11.66 19.68 -12 19 C-12.66 19 -13.32 19 -14 19 C-13.67 16.69 -13.34 14.38 -13 12 C-12.195625 11.7525 -11.39125 11.505 -10.5625 11.25 C-7.828919 10.27761141 -7.828919 10.27761141 -7.1875 7.875 C-7.125625 7.25625 -7.06375 6.6375 -7 6 C-6.34 6 -5.68 6 -5 6 C-5 6.66 -5 7.32 -5 8 C-2.03 8.495 -2.03 8.495 1 9 C1.33 8.34 1.66 7.68 2 7 C2.66 7.33 3.32 7.66 4 8 C3.01 6.576875 3.01 6.576875 2 5.125 C0 2 0 2 0 0 Z " fill="#0C5D8A" transform="translate(122,70)"/>
<path d="M0 0 C0.33 0 0.66 0 1 0 C1.33 36.63 1.66 73.26 2 111 C2.33 111 2.66 111 3 111 C3 133.44 3 155.88 3 179 C5.64 178.67 8.28 178.34 11 178 C13.70822071 177.97424876 16.28834092 178.21959882 19 178.4375 C19.67933594 178.48970703 20.35867187 178.54191406 21.05859375 178.59570312 C22.70629674 178.72334209 24.35324808 178.86062647 26 179 C25.96447021 178.16339844 25.92894043 177.32679688 25.89233398 176.46484375 C25.76222217 173.32652081 25.6380781 170.18803129 25.51782227 167.04931641 C25.43893458 165.03660132 25.35331849 163.02415356 25.26757812 161.01171875 C25.21923828 159.72910156 25.17089844 158.44648438 25.12109375 157.125 C25.05039673 155.36542969 25.05039673 155.36542969 24.97827148 153.5703125 C24.99787417 150.34930502 25.33331549 147.30827293 25.77088928 144.12255859 C26.19734805 140.17170144 26.07610448 136.21865402 26.03125 132.25 C25.96792587 120.51861922 26.07684995 108.79290433 26.21875 97.0625 C26.22982788 96.13260254 26.24090576 95.20270508 26.25231934 94.24462891 C26.3210938 88.47949186 26.39196601 82.7143824 26.46356201 76.94927979 C26.5249504 71.98052232 26.58466139 67.0117447 26.64453125 62.04296875 C26.76141819 52.36195922 26.88010583 42.68097273 27 33 C27.66 33.33 28.32 33.66 29 34 C28.67 82.18 28.34 130.36 28 180 C25.41276011 181.29361994 23.51886997 181.12948949 20.625 181.1328125 C19.55765625 181.13410156 18.4903125 181.13539063 17.390625 181.13671875 C16.27171875 181.13285156 15.1528125 181.12898437 14 181.125 C12.88109375 181.12886719 11.7621875 181.13273438 10.609375 181.13671875 C9.00835937 181.13478516 9.00835937 181.13478516 7.375 181.1328125 C6.39273438 181.13168457 5.41046875 181.13055664 4.3984375 181.12939453 C2 181 2 181 0 180 C0 120.6 0 61.2 0 0 Z " fill="#0A3956" transform="translate(52,30)"/>
<path d="M0 0 C0 0.99 0 1.98 0 3 C-2.3125 4.125 -2.3125 4.125 -5 5 C-5.99 4.34 -6.98 3.68 -8 3 C-7.34 2.34 -6.68 1.68 -6 1 C-6.66 -0.32 -7.32 -1.64 -8 -3 C-11.24992446 -3.05819424 -14.49971435 -3.09366116 -17.75 -3.125 C-18.67039062 -3.14175781 -19.59078125 -3.15851562 -20.5390625 -3.17578125 C-21.42851563 -3.18222656 -22.31796875 -3.18867188 -23.234375 -3.1953125 C-24.05131836 -3.20578613 -24.86826172 -3.21625977 -25.70996094 -3.22705078 C-28.21887518 -2.97829916 -29.83395625 -2.25700129 -32 -1 C-32.02467917 4.23274388 -32.04285003 9.46545403 -32.05493164 14.69824219 C-32.05996711 16.47917267 -32.06679581 18.260099 -32.07543945 20.04101562 C-32.08753942 22.59766665 -32.09323609 25.15426312 -32.09765625 27.7109375 C-32.10281754 28.50994476 -32.10797882 29.30895203 -32.11329651 30.13217163 C-32.2133875 34.19691905 -32.2133875 34.19691905 -31 38 C-31.27748358 39.90480918 -31.62112721 41.80023994 -32 43.6875 C-32.88337247 48.55482382 -32.96199985 52.19000073 -32 57 C-32.495 57.495 -32.495 57.495 -33 58 C-33.23653523 60.52596259 -33.42173692 63.03107207 -33.5625 65.5625 C-33.60568359 66.27341797 -33.64886719 66.98433594 -33.69335938 67.71679688 C-33.79971777 69.47761912 -33.90038846 71.2387832 -34 73 C-34.33 73 -34.66 73 -35 73 C-35 47.26 -35 21.52 -35 -5 C-7 -6 -7 -6 0 0 Z " fill="#2EBDD9" transform="translate(88,35)"/>
<path d="M0 0 C1.63827858 1.35942265 3.26728442 2.73105175 4.85742188 4.14648438 C6.98004911 6.03960619 6.98004911 6.03960619 9.34570312 7.68164062 C13.38082491 10.93298567 16.09222142 13.76696563 16.72680664 19.01000977 C16.99530945 23.70388801 16.7873385 28.37105846 16.5625 33.0625 C16.51728523 34.70757224 16.47623291 36.35276444 16.43945312 37.99804688 C16.34096796 42.00169406 16.18610641 45.99950745 16 50 C11.99744336 47.81094742 9.01788757 45.26342096 5.8046875 42.03515625 C5.09350266 41.32328407 5.09350266 41.32328407 4.36795044 40.59703064 C3.37231271 39.59838776 2.37909029 38.59733157 1.38818359 37.59399414 C-0.12221123 36.06532252 -1.64047562 34.54482575 -3.16015625 33.02539062 C-11.21260406 24.9321581 -11.21260406 24.9321581 -14 21 C-12.35 20.67 -10.7 20.34 -9 20 C-7 23 -7 23 -7 27 C-6.01 27 -5.02 27 -4 27 C-3.34 27.99 -2.68 28.98 -2 30 C-1.34 30.309375 -0.68 30.61875 0 30.9375 C2 32 2 32 2.875 34.0625 C3.431875 35.0215625 3.431875 35.0215625 4 36 C7.05908413 36.81584568 7.05908413 36.81584568 10 37 C9.67 38.65 9.34 40.3 9 42 C9.66 42 10.32 42 11 42 C11 41.34 11 40.68 11 40 C11.66 40 12.32 40 13 40 C13.33 31.75 13.66 23.5 14 15 C13.34 15 12.68 15 12 15 C11.67 14.34 11.34 13.68 11 13 C10.01 12.67 9.02 12.34 8 12 C6.3125 10.625 6.3125 10.625 5 9 C5 8.01 5 7.02 5 6 C3.68 6 2.36 6 1 6 C0.67 4.02 0.34 2.04 0 0 Z " fill="#144060" transform="translate(143,91)"/>
<path d="M0 0 C8.91 0 17.82 0 27 0 C27 21.78 27 43.56 27 66 C26.67 66 26.34 66 26 66 C26 44.88 26 23.76 26 2 C18.74 2 11.48 2 4 2 C2.44859033 3.55140967 2.78271058 5.08903524 2.68359375 7.25 C2.64177979 8.15709717 2.59996582 9.06419434 2.55688477 9.9987793 C2.49778931 11.48438354 2.49778931 11.48438354 2.4375 13 C2.39359131 14.01425049 2.34968262 15.02850098 2.30444336 16.07348633 C1.95499163 25.02587898 1.95245413 33.96684098 2.12475586 42.92382812 C2.13643799 43.92220703 2.14812012 44.92058594 2.16015625 45.94921875 C2.18541382 47.26925903 2.18541382 47.26925903 2.21118164 48.6159668 C2 51 2 51 0 55 C0 36.85 0 18.7 0 0 Z " fill="#DDE1E3" transform="translate(180,30)"/>
<path d="M0 0 C2.14453125 -0.3203125 2.14453125 -0.3203125 5 0 C7.1323901 1.65754251 8.84715307 3.19200976 10.6875 5.125 C11.41549805 5.8365625 11.41549805 5.8365625 12.15820312 6.5625 C15.31440009 9.78399759 17.03206209 12.59119894 18 17 C17.67 17.66 17.34 18.32 17 19 C16.01 19 15.02 19 14 19 C13.34 19.66 12.68 20.32 12 21 C11.67 19.68 11.34 18.36 11 17 C10.34 17 9.68 17 9 17 C9 14.36 9 11.72 9 9 C6.69 8.67 4.38 8.34 2 8 C0 1.125 0 1.125 0 0 Z " fill="#0D98C8" transform="translate(87,39)"/>
<path d="M0 0 C2.18402357 3.91562302 2.20138194 7.23128056 2.0625 11.625 C1.73803683 16.45370356 1.73803683 16.45370356 3 21 C2.72251642 22.90480918 2.37887279 24.80023994 2 26.6875 C1.11662753 31.55482382 1.03800015 35.19000073 2 40 C1.505 40.495 1.505 40.495 1 41 C0.76346477 43.52596259 0.57826308 46.03107207 0.4375 48.5625 C0.39431641 49.27341797 0.35113281 49.98433594 0.30664062 50.71679688 C0.20028223 52.47761912 0.09961154 54.2387832 0 56 C-0.33 56 -0.66 56 -1 56 C-1.02493184 49.95345349 -1.04296863 43.90693767 -1.05493164 37.86035156 C-1.05992495 35.80826292 -1.06672191 33.75617777 -1.07543945 31.70410156 C-1.16597155 9.8272867 -1.16597155 9.8272867 0 0 Z " fill="#1B9FCA" transform="translate(54,52)"/>
<path d="M0 0 C0.33 1.98 0.66 3.96 1 6 C1.99 6 2.98 6 4 6 C4.99 7.485 4.99 7.485 6 9 C6.66 9.309375 7.32 9.61875 8 9.9375 C10 11 10 11 10.875 13.0625 C11.24625 13.701875 11.6175 14.34125 12 15 C15.05908413 15.81584568 15.05908413 15.81584568 18 16 C17.67 17.65 17.34 19.3 17 21 C17.66 21 18.32 21 19 21 C18.67 22.32 18.34 23.64 18 25 C15.06096418 22.08577101 12.1252902 19.16820075 9.19262695 16.24755859 C8.19548833 15.25543397 7.19745212 14.26421061 6.19848633 13.27392578 C4.75883147 11.84646531 3.3224863 10.41574407 1.88671875 8.984375 C0.59060669 7.69611816 0.59060669 7.69611816 -0.73168945 6.38183594 C-2.67690573 4.33926463 -4.37355639 2.29889312 -6 0 C-3 -1 -3 -1 0 0 Z " fill="#0D395C" transform="translate(135,112)"/>
<path d="M0 0 C2.029668 3.044502 2.24856301 3.60276328 2.22705078 7.01245117 C2.22689972 7.81305466 2.22674866 8.61365814 2.22659302 9.43852234 C2.21627045 10.29798965 2.20594788 11.15745697 2.1953125 12.04296875 C2.1924826 12.9265657 2.18965271 13.81016266 2.18673706 14.72053528 C2.17554097 17.54299454 2.15043751 20.36513662 2.125 23.1875 C2.11496946 25.10090688 2.10584374 27.01431873 2.09765625 28.92773438 C2.07560351 33.61861182 2.04107762 38.30925213 2 43 C1.67 42.34 1.34 41.68 1 41 C-0.485 41.495 -0.485 41.495 -2 42 C-1.11188531 35.40257657 -1.11188531 35.40257657 -0.45507812 33.03930664 C0.04999088 30.77597969 0.00920559 28.93124251 -0.15625 26.62109375 C-0.20982666 25.78674805 -0.26340332 24.95240234 -0.31860352 24.09277344 C-0.40839478 22.77841309 -0.40839478 22.77841309 -0.5 21.4375 C-0.93883549 14.18853938 -1.07512656 7.21161814 0 0 Z " fill="#166A92" transform="translate(77,102)"/>
<path d="M0 0 C0 1.65 0 3.3 0 5 C2.64 4.67 5.28 4.34 8 4 C8.33 5.98 8.66 7.96 9 10 C8.34 10 7.68 10 7 10 C6.67 10.99 6.34 11.98 6 13 C1.86378916 9.6189962 -1.81316569 6.33409466 -5 2 C-2 0 -2 0 0 0 Z " fill="#7E8990" transform="translate(167,196)"/>
<path d="M0 0 C4.18185421 3.52587708 8.19095875 7.07553326 12 11 C11.67 11.99 11.34 12.98 11 14 C9.33388095 14.042721 7.66617115 14.04063832 6 14 C4.55477766 12.55477766 3.88732901 10.83011609 3 9 C2.67 8.34 2.34 7.68 2 7 C1.34 7.99 0.68 8.98 0 10 C0 6.7 0 3.4 0 0 Z " fill="#DDE1E2" transform="translate(101,105)"/>
<path d="M0 0 C0.33 0 0.66 0 1 0 C1.9651732 4.20134216 2.29541974 8.32627956 2.5625 12.625 C2.64628906 13.93726562 2.73007812 15.24953125 2.81640625 16.6015625 C3.05481019 21.01457169 2.74813999 24.83893631 2 29.1875 C1.814375 30.27417969 1.62875 31.36085937 1.4375 32.48046875 C1.293125 33.31191406 1.14875 34.14335937 1 35 C0.67 35 0.34 35 0 35 C0 23.45 0 11.9 0 0 Z " fill="#1B6991" transform="translate(53,108)"/>
<path d="M0 0 C4.47580645 -0.36290323 4.47580645 -0.36290323 6.625 1.125 C8.46966897 3.64045769 9.80015299 6.12036718 11 9 C10.67 9.99 10.34 10.98 10 12 C9.67 11.01 9.34 10.02 9 9 C6.69 8.67 4.38 8.34 2 8 C0 1.125 0 1.125 0 0 Z " fill="#0EA1C9" transform="translate(87,39)"/>
<path d="M0 0 C0.33 0 0.66 0 1 0 C3.28571429 13.42857143 3.28571429 13.42857143 1 18 C1.66 18 2.32 18 3 18 C2.67 19.65 2.34 21.3 2 23 C-0.31 22.67 -2.62 22.34 -5 22 C-4.52006592 21.59676514 -4.04013184 21.19353027 -3.5456543 20.77807617 C-1.65807823 18.60666305 -1.51722215 17.3897 -1.26953125 14.55078125 C-1.18896484 13.70322266 -1.10839844 12.85566406 -1.02539062 11.98242188 C-0.95513672 11.10134766 -0.88488281 10.22027344 -0.8125 9.3125 C-0.73064453 8.41982422 -0.64878906 7.52714844 -0.56445312 6.60742188 C-0.36429896 4.40572602 -0.17663742 2.20368662 0 0 Z " fill="#8D989F" transform="translate(181,161)"/>
<path d="M0 0 C0.66 0.33 1.32 0.66 2 1 C2 10.24 2 19.48 2 29 C1.67 29 1.34 29 1 29 C0.69009554 25.03117457 0.38709344 21.06188972 0.09057617 17.09204102 C-0.01135057 15.74065828 -0.11518726 14.38941822 -0.22094727 13.03833008 C-0.37233388 11.10015495 -0.51636126 9.16140939 -0.66015625 7.22265625 C-0.74918213 6.05484619 -0.83820801 4.88703613 -0.92993164 3.68383789 C-0.9530542 2.79817139 -0.97617676 1.91250488 -1 1 C-0.67 0.67 -0.34 0.34 0 0 Z " fill="#2B90B4" transform="translate(77,60)"/>
<path d="M0 0 C1.17539996 0.92652701 2.34010577 1.86663387 3.5 2.8125 C4.1496875 3.33457031 4.799375 3.85664062 5.46875 4.39453125 C7 6 7 6 7 9 C4.6875 10.125 4.6875 10.125 2 11 C1.01 10.34 0.02 9.68 -1 9 C-0.34 8.34 0.32 7.68 1 7 C0.34 6.34 -0.32 5.68 -1 5 C-0.625 2.375 -0.625 2.375 0 0 Z " fill="#1495B6" transform="translate(81,29)"/>
<path d="M0 0 C2.35448165 2.55068845 2.98327924 3.71017358 3.1875 7.25 C3.125625 8.1575 3.06375 9.065 3 10 C0 10 0 10 -1.60546875 8.46875 C-2.12753906 7.8190625 -2.64960938 7.169375 -3.1875 6.5 C-3.71730469 5.8503125 -4.24710938 5.200625 -4.79296875 4.53125 C-5.19128906 4.0259375 -5.58960938 3.520625 -6 3 C-5.195625 2.87625 -4.39125 2.7525 -3.5625 2.625 C-2.716875 2.41875 -1.87125 2.2125 -1 2 C-0.67 1.34 -0.34 0.68 0 0 Z " fill="#7F8990" transform="translate(157,184)"/>
<path d="M0 0 C0 3 0 6 0 9 C-3 9 -3 9 -5.6875 6.5 C-6.450625 5.675 -7.21375 4.85 -8 4 C-7 1 -7 1 -4.5625 -0.25 C-2 -1 -2 -1 0 0 Z " fill="#C9CFD2" transform="translate(112,137)"/>
<path d="M0 0 C1.485 0.99 1.485 0.99 3 2 C3 2.66 3 3.32 3 4 C3.59296875 4.25523437 4.1859375 4.51046875 4.796875 4.7734375 C7.21224538 6.11816498 8.51211706 7.49214367 10.25 9.625 C10.77078125 10.25664062 11.2915625 10.88828125 11.828125 11.5390625 C12.40820312 12.26222656 12.40820312 12.26222656 13 13 C10.37886292 13 8.49064888 12.68707555 6 12 C5.87625 11.360625 5.7525 10.72125 5.625 10.0625 C5.41875 9.381875 5.2125 8.70125 5 8 C4.34 7.67 3.68 7.34 3 7 C3 6.34 3 5.68 3 5 C2.01 5 1.02 5 0 5 C0 3.35 0 1.7 0 0 Z " fill="#919A9F" transform="translate(135,138)"/>
<path d="M0 0 C1.32 0.33 2.64 0.66 4 1 C4 1.66 4 2.32 4 3 C5.65 3.33 7.3 3.66 9 4 C9.33 5.65 9.66 7.3 10 9 C10.66 9 11.32 9 12 9 C12 9.66 12 10.32 12 11 C13.32 11 14.64 11 16 11 C16 11.99 16 12.98 16 14 C12.85029125 13.42269489 11.22020695 12.5917026 8.984375 10.3125 C8.45585938 9.77882813 7.92734375 9.24515625 7.3828125 8.6953125 C6.84398438 8.13585937 6.30515625 7.57640625 5.75 7 C5.19570312 6.44054687 4.64140625 5.88109375 4.0703125 5.3046875 C0 1.1541718 0 1.1541718 0 0 Z " fill="#186D96" transform="translate(96,78)"/>
<path d="M0 0 C4.91935902 4.11619836 9.52647956 8.40410362 14 13 C13.34 13.66 12.68 14.32 12 15 C7.1252081 11.28587284 3.25463813 7.22819529 0 2 C0 1.34 0 0.68 0 0 Z " fill="#155F84" transform="translate(122,70)"/>
<path d="M0 0 C1.98 0 3.96 0 6 0 C5.01773438 0.70382813 5.01773438 0.70382813 4.015625 1.421875 C1.04009574 5.22778452 1.55972928 8.56641305 1.75 13.25 C1.76804688 14.09046875 1.78609375 14.9309375 1.8046875 15.796875 C1.85169202 17.86507395 1.92343276 19.93268441 2 22 C1.34 21.67 0.68 21.34 0 21 C0 14.07 0 7.14 0 0 Z " fill="#0FBFE0" transform="translate(54,31)"/>
<path d="M0 0 C3.65316671 1.24976756 4.78065836 1.67098753 7 5 C6.401875 5.144375 5.80375 5.28875 5.1875 5.4375 C3.43849596 5.8872439 1.71322977 6.42892341 0 7 C-2.1875 6.5625 -2.1875 6.5625 -4 6 C-3.34 4.68 -2.68 3.36 -2 2 C-1.34 2 -0.68 2 0 2 C0 1.34 0 0.68 0 0 Z " fill="#8A959A" transform="translate(164,169)"/>
<path d="M0 0 C0.33 0 0.66 0 1 0 C1 5.61 1 11.22 1 17 C0.67 16.34 0.34 15.68 0 15 C-0.99 15.33 -1.98 15.66 -3 16 C-2.49807695 12.27142874 -1.96941554 8.63530829 -1 5 C-0.65939189 3.33480481 -0.32441604 1.66842534 0 0 Z " fill="#1D5B83" transform="translate(78,128)"/>
<path d="M0 0 C0.99 0.495 0.99 0.495 2 1 C2.6875 4.5 2.6875 4.5 3 8 C2.67 8.33 2.34 8.66 2 9 C1.76346477 11.52596259 1.57826308 14.03107207 1.4375 16.5625 C1.39431641 17.27341797 1.35113281 17.98433594 1.30664062 18.71679688 C1.20028223 20.47761912 1.09961154 22.2387832 1 24 C0.67 24 0.34 24 0 24 C0 16.08 0 8.16 0 0 Z " fill="#2189B3" transform="translate(53,84)"/>
<path d="M0 0 C5.46875 4.39453125 5.46875 4.39453125 7 6 C7 6.99 7 7.98 7 9 C4.525 8.01 4.525 8.01 2 7 C1.34 7.99 0.68 8.98 0 10 C0 6.7 0 3.4 0 0 Z " fill="#D6D9DC" transform="translate(101,105)"/>
<path d="M0 0 C0.66 1.98 1.32 3.96 2 6 C1.01 6.66 0.02 7.32 -1 8 C-2.65 6.02 -4.3 4.04 -6 2 C-2.25 0 -2.25 0 0 0 Z " fill="#929CA2" transform="translate(143,171)"/>
<path d="M0 0 C1.98 0 3.96 0 6 0 C6 0.99 6 1.98 6 3 C6.66 3.33 7.32 3.66 8 4 C6.02 4.99 6.02 4.99 4 6 C2.62437146 4.71034824 1.29233607 3.37310707 0 2 C0 1.34 0 0.68 0 0 Z M7 0 C7.99 0.33 8.98 0.66 10 1 C10 1.66 10 2.32 10 3 C9.34 3 8.68 3 8 3 C7.67 2.01 7.34 1.02 7 0 Z " fill="#B5BDC1" transform="translate(118,153)"/>
<path d="M0 0 C2.375 0.1875 2.375 0.1875 5 1 C6.3125 3.5625 6.3125 3.5625 7 6 C7.66 6 8.32 6 9 6 C9 6.66 9 7.32 9 8 C6.64277278 7.82539058 5.30294138 7.3003668 3.62109375 5.6328125 C0 1.32051282 0 1.32051282 0 0 Z " fill="#1A8BB6" transform="translate(82,63)"/>
<path d="M0 0 C1.12588014 0.95729916 2.2506715 1.91587895 3.375 2.875 C4.00148437 3.40867187 4.62796875 3.94234375 5.2734375 4.4921875 C6.55836651 5.61432007 7.79371975 6.79371975 9 8 C8.67 8.99 8.34 9.98 8 11 C7.01 10.34 6.02 9.68 5 9 C5 8.01 5 7.02 5 6 C3.68 6 2.36 6 1 6 C0.67 4.02 0.34 2.04 0 0 Z " fill="#144F72" transform="translate(143,91)"/>
<path d="M0 0 C1.98 0 3.96 0 6 0 C6.33 0.99 6.66 1.98 7 3 C5.35 4.32 3.7 5.64 2 7 C1.34 6.67 0.68 6.34 0 6 C0 4.02 0 2.04 0 0 Z " fill="#0E81B2" transform="translate(112,66)"/>
<path d="M0 0 C2.475 0.495 2.475 0.495 5 1 C4.67 2.98 4.34 4.96 4 7 C3.34 7 2.68 7 2 7 C0 4 0 4 0 0 Z " fill="#D9DEDE" transform="translate(112,119)"/>
<path d="M0 0 C2.97 0.495 2.97 0.495 6 1 C6.33 2.32 6.66 3.64 7 5 C4 6 4 6 1 5 C0.67 3.35 0.34 1.7 0 0 Z " fill="#108CBC" transform="translate(105,58)"/>
<path d="M0 0 C0.99 0.33 1.98 0.66 3 1 C2.67 1.99 2.34 2.98 2 4 C2.33 4.33 2.66 4.66 3 5 C3 5.99 3 6.98 3 8 C1.68 8.33 0.36 8.66 -1 9 C-0.67 6.03 -0.34 3.06 0 0 Z " fill="#D0D5D8" transform="translate(121,126)"/>
<path d="M0 0 C0.99 0.33 1.98 0.66 3 1 C3.33 3.31 3.66 5.62 4 8 C1.69 6.02 -0.62 4.04 -3 2 C-2.01 1.34 -1.02 0.68 0 0 Z " fill="#0E4366" transform="translate(132,111)"/>
<path d="M0 0 C0.66 0.33 1.32 0.66 2 1 C1.67 7.27 1.34 13.54 1 20 C0.67 20 0.34 20 0 20 C-0.19594676 16.85463232 -0.3803401 13.70869386 -0.5625 10.5625 C-0.61857422 9.66466797 -0.67464844 8.76683594 -0.73242188 7.84179688 C-0.78076172 6.98779297 -0.82910156 6.13378906 -0.87890625 5.25390625 C-0.9260376 4.46314697 -0.97316895 3.6723877 -1.02172852 2.85766602 C-1 1 -1 1 0 0 Z " fill="#1394C0" transform="translate(77,60)"/>
<path d="M0 0 C0.66 0.66 1.32 1.32 2 2 C1.01 3.98 0.02 5.96 -1 8 C-1.99 7.67 -2.98 7.34 -4 7 C-3.34 5.35 -2.68 3.7 -2 2 C-1.34 2 -0.68 2 0 2 C0 1.34 0 0.68 0 0 Z " fill="#C2CBCC" transform="translate(118,144)"/>
<path d="M0 0 C4 0 4 0 6.25 2 C6.8275 2.66 7.405 3.32 8 4 C7.67 4.99 7.34 5.98 7 7 C5.83040013 6.02433888 4.66438823 5.044375 3.5 4.0625 C2.8503125 3.51722656 2.200625 2.97195312 1.53125 2.41015625 C1.0259375 1.94480469 0.520625 1.47945312 0 1 C0 0.67 0 0.34 0 0 Z " fill="#656F79" transform="translate(166,202)"/>
<path d="M0 0 C-0.33 1.65 -0.66 3.3 -1 5 C-3.31 4.67 -5.62 4.34 -8 4 C-3.375 0 -3.375 0 0 0 Z " fill="#768089" transform="translate(184,179)"/>
<path d="M0 0 C2.94956528 1.36944102 5.52468811 2.87830409 8 5 C8 5.66 8 6.32 8 7 C4.78448712 6.65548076 3.97940123 5.97711248 1.75 3.5 C0 1 0 1 0 0 Z " fill="#14648F" transform="translate(112,93)"/>
<path d="M0 0 C2.31 1.98 4.62 3.96 7 6 C6.01 6.99 5.02 7.98 4 9 C3.71125 8.38125 3.4225 7.7625 3.125 7.125 C2.06279958 4.86674235 2.06279958 4.86674235 0 3 C0 2.01 0 1.02 0 0 Z " fill="#828B90" transform="translate(149,152)"/>
<path d="M0 0 C1.32 0.33 2.64 0.66 4 1 C4 1.66 4 2.32 4 3 C4.66 3 5.32 3 6 3 C6 3.66 6 4.32 6 5 C6.66 5 7.32 5 8 5 C7.67 5.66 7.34 6.32 7 7 C3.42895561 5.12050295 1.45255699 3.82946843 0 0 Z " fill="#1C7DA7" transform="translate(91,72)"/>
<path d="M0 0 C1.17539996 0.92652701 2.34010577 1.86663387 3.5 2.8125 C4.1496875 3.33457031 4.799375 3.85664062 5.46875 4.39453125 C7 6 7 6 7 9 C0.70535714 4.17857143 0.70535714 4.17857143 0 0 Z " fill="#177899" transform="translate(95,43)"/>
<path d="M0 0 C0.33 0.66 0.66 1.32 1 2 C1.66 2 2.32 2 3 2 C2.42655063 4.86724686 2.1385485 5.8614515 0 8 C-0.33 7.34 -0.66 6.68 -1 6 C-0.67 5.34 -0.34 4.68 0 4 C-0.66 4 -1.32 4 -2 4 C-2 3.34 -2 2.68 -2 2 C-1.34 2 -0.68 2 0 2 C0 1.34 0 0.68 0 0 Z " fill="#0C517F" transform="translate(154,104)"/>
<path d="M0 0 C2.6875 0.3125 2.6875 0.3125 5 1 C5 1.66 5 2.32 5 3 C2.6875 4.125 2.6875 4.125 0 5 C-0.99 4.34 -1.98 3.68 -3 3 C-1.8125 1.4375 -1.8125 1.4375 0 0 Z " fill="#0DB4DC" transform="translate(83,35)"/>
<path d="M0 0 C0 1.65 0 3.3 0 5 C-0.99 5 -1.98 5 -3 5 C-3.66 4.01 -4.32 3.02 -5 2 C-2 0 -2 0 0 0 Z " fill="#717B84" transform="translate(167,196)"/>
<path d="M0 0 C0.66 0 1.32 0 2 0 C2.99 1.98 3.98 3.96 5 6 C4.34 6.66 3.68 7.32 3 8 C2.896875 7.360625 2.79375 6.72125 2.6875 6.0625 C2.460625 5.381875 2.23375 4.70125 2 4 C1.01 3.67 0.02 3.34 -1 3 C-0.67 2.01 -0.34 1.02 0 0 Z " fill="#0D517E" transform="translate(137,114)"/>
<path d="M0 0 C0.33 0 0.66 0 1 0 C1 2.31 1 4.62 1 7 C0.01 7.33 -0.98 7.66 -2 8 C-1.125 1.125 -1.125 1.125 0 0 Z " fill="#0C567D" transform="translate(77,136)"/>
<path d="M0 0 C0.66 0.33 1.32 0.66 2 1 C1.01 2.485 1.01 2.485 0 4 C-0.99 3.34 -1.98 2.68 -3 2 C-2.01 1.34 -1.02 0.68 0 0 Z M-6 2 C-5.01 2.33 -4.02 2.66 -3 3 C-3.33 3.99 -3.66 4.98 -4 6 C-4.66 5.67 -5.32 5.34 -6 5 C-6 4.01 -6 3.02 -6 2 Z " fill="#D1D7D9" transform="translate(110,136)"/>
<path d="M0 0 C1.98 1.65 3.96 3.3 6 5 C5.34 5.66 4.68 6.32 4 7 C2.35 5.35 0.7 3.7 -1 2 C-0.67 1.34 -0.34 0.68 0 0 Z " fill="#12587D" transform="translate(130,78)"/>
<path d="M0 0 C2 1.375 2 1.375 4 3 C4 3.66 4 4.32 4 5 C2.68 5.33 1.36 5.66 0 6 C-0.38218767 4.34385343 -0.71395102 2.67542976 -1 1 C-0.67 0.67 -0.34 0.34 0 0 Z " fill="#0E6C9E" transform="translate(130,81)"/>
</svg>
